<?xml version="1.0" encoding="utf-8"?>
<!-- Generator: Adobe Illustrator 19.0.0, SVG Export Plug-In . SVG Version: 6.00 Build 0)  -->
<svg version="1.1" id="Layer_1" xmlns="http://www.w3.org/2000/svg" xmlns:xlink="http://www.w3.org/1999/xlink" x="0px" y="0px"
	 viewBox="0 0 12.3 10.5" style="enable-background:new 0 0 12.3 10.5;" xml:space="preserve">
<style type="text/css">
	.st0{fill:#FFFFFF;}
</style>
<g id="XMLID_66_">
	<path id="XMLID_70_" class="st0" d="M11.4,8.5L9.5,7.5C9.3,7.4,9.1,7.1,9.1,6.9V6.1C9.2,6.1,9.2,6,9.3,5.9c0.3-0.4,0.5-0.8,0.6-1.2
		c0.2-0.1,0.4-0.3,0.4-0.6V3.4c0-0.2-0.1-0.3-0.2-0.4V1.8c0,0,0.2-1.8-2.2-1.8S5.8,1.8,5.8,1.8v1.1C5.6,3,5.6,3.2,5.6,3.4v0.8
		c0,0.2,0.1,0.4,0.3,0.5C6,5.5,6.6,6.1,6.6,6.1v0.7c0,0.3-0.1,0.5-0.4,0.6l-1.8,1C3.9,8.7,3.6,9.3,3.6,9.8v0.6h8.7V9.9
		C12.3,9.3,12,8.7,11.4,8.5L11.4,8.5z M11.4,8.5"/>
	<path id="XMLID_67_" class="st0" d="M3.6,8.4l1.2-0.6c0,0,0,0,0,0l0.6-0.3c0.2-0.1,0.4-0.4,0.4-0.6V6.1c0,0-0.2-0.3-0.4-0.7
		c0-0.1-0.1-0.1-0.1-0.2c0,0,0,0,0,0c0-0.1-0.1-0.1-0.1-0.2c0,0,0,0,0,0c0-0.1,0-0.1-0.1-0.2c0,0,0,0,0-0.1c0-0.1,0-0.1-0.1-0.2
		C4.9,4.5,4.7,4.4,4.7,4.2V3.4c0-0.2,0.1-0.3,0.2-0.4V1.8C4.7,1.6,4.2,1.4,3.6,1.4c-1.9,0-2,1.6-2,1.6v1C1.5,4,1.4,4.2,1.4,4.3V5
		c0,0.2,0.1,0.3,0.2,0.4c0.2,0.7,0.7,1.3,0.7,1.3v0.6c0,0.2-0.1,0.4-0.3,0.5L0.7,8.7C0.3,9,0,9.4,0,9.9v0.6h2.8V9.8
		C2.8,9.3,3.1,8.7,3.6,8.4L3.6,8.4z M3.6,8.4"/>
</g>
</svg>
